<svg width="50" height="50" viewBox="0 0 50 50" fill="none" xmlns="http://www.w3.org/2000/svg">
<circle cx="25" cy="25" r="24" fill="#212121"/>
<path d="M39 16.6769C37.9694 17.1453 36.8585 17.4532 35.7075 17.6004C36.8853 16.891 37.7954 15.7667 38.2237 14.4149C37.1128 15.0841 35.8815 15.5526 34.5832 15.8203C33.5258 14.6692 32.0402 14 30.3537 14C27.2084 14 24.6386 16.5698 24.6386 19.7419C24.6386 20.1969 24.6922 20.6386 24.7859 21.0535C20.021 20.8126 15.7782 18.5239 12.9541 15.0574C12.4589 15.9006 12.1778 16.891 12.1778 17.935C12.1778 19.9293 13.1816 21.696 14.7342 22.6998C13.7839 22.6998 12.9006 22.4321 12.1243 22.0306V22.0707C12.1243 24.8547 14.1052 27.1836 16.7285 27.7055C15.8863 27.936 15.002 27.9681 14.1453 27.7992C14.5088 28.9402 15.2208 29.9386 16.1811 30.654C17.1414 31.3694 18.3017 31.7659 19.499 31.7878C17.4695 33.3945 14.9537 34.2629 12.3652 34.2505C11.9101 34.2505 11.4551 34.2237 11 34.1702C13.543 35.8031 16.5679 36.7533 19.8069 36.7533C30.3537 36.7533 36.1491 28 36.1491 20.4111C36.1491 20.1568 36.1491 19.9159 36.1358 19.6616C37.26 18.8585 38.2237 17.8413 39 16.6769Z" fill="#666666"/>
</svg>
