<svg width="50" height="50" viewBox="0 0 50 50" fill="none" xmlns="http://www.w3.org/2000/svg">
<circle cx="25" cy="25" r="24" fill="#212121"/>
<path d="M22.2 29L29.466 24.8L22.2 20.6V29ZM38.384 18.038C38.566 18.696 38.692 19.578 38.776 20.698C38.874 21.818 38.916 22.784 38.916 23.624L39 24.8C39 27.866 38.776 30.12 38.384 31.562C38.034 32.822 37.222 33.634 35.962 33.984C35.304 34.166 34.1 34.292 32.252 34.376C30.432 34.474 28.766 34.516 27.226 34.516L25 34.6C19.134 34.6 15.48 34.376 14.038 33.984C12.778 33.634 11.966 32.822 11.616 31.562C11.434 30.904 11.308 30.022 11.224 28.902C11.126 27.782 11.084 26.816 11.084 25.976L11 24.8C11 21.734 11.224 19.48 11.616 18.038C11.966 16.778 12.778 15.966 14.038 15.616C14.696 15.434 15.9 15.308 17.748 15.224C19.568 15.126 21.234 15.084 22.774 15.084L25 15C30.866 15 34.52 15.224 35.962 15.616C37.222 15.966 38.034 16.778 38.384 18.038Z" fill="#666666"/>
</svg>
